<svg width="526" height="230" xmlns="http://www.w3.org/2000/svg" xmlns:xlink="http://www.w3.org/1999/xlink" overflow="hidden"><defs><clipPath id="clip0"><path d="M0 0 526 0 526 230 0 230Z" fill-rule="evenodd" clip-rule="evenodd"/></clipPath><clipPath id="clip1"><path d="M312 121 339 121 339 150 312 150Z" fill-rule="evenodd" clip-rule="evenodd"/></clipPath><clipPath id="clip2"><path d="M312 121 339 121 339 150 312 150Z" fill-rule="evenodd" clip-rule="evenodd"/></clipPath><clipPath id="clip3"><path d="M312 121 339 121 339 150 312 150Z" fill-rule="evenodd" clip-rule="evenodd"/></clipPath><clipPath id="clip4"><path d="M393 23 429 23 429 46 393 46Z" fill-rule="evenodd" clip-rule="evenodd"/></clipPath><clipPath id="clip5"><path d="M393 23 429 23 429 46 393 46Z" fill-rule="evenodd" clip-rule="evenodd"/></clipPath><clipPath id="clip6"><path d="M393 23 429 23 429 46 393 46Z" fill-rule="evenodd" clip-rule="evenodd"/></clipPath><clipPath id="clip7"><path d="M63 58 99 58 99 83 63 83Z" fill-rule="evenodd" clip-rule="evenodd"/></clipPath><clipPath id="clip8"><path d="M63 58 99 58 99 83 63 83Z" fill-rule="evenodd" clip-rule="evenodd"/></clipPath><clipPath id="clip9"><path d="M63 58 99 58 99 83 63 83Z" fill-rule="evenodd" clip-rule="evenodd"/></clipPath></defs><g clip-path="url(#clip0)"><rect x="0" y="0" width="525.239" height="230" fill="#FFFFFF" transform="scale(1.00145 1)"/><rect x="0" y="0" width="525.239" height="230" fill="#F2F2F2" transform="scale(1.00145 1)"/><path d="M0 56.0296 0 49.0591 3.95335 49.0591 7.87886 49.0591 7.87886 39.2587 7.87886 29.4393 20.1844 29.4393 32.4899 29.4393 32.4899 39.2587 32.4899 49.0591 37.3619 49.0591 42.234 49.0591 42.234 46.552 42.234 44.026 46.5215 43.931 50.8089 43.836 50.9203 34.7383 51.0595 25.6407 53.1475 25.6407 55.2077 25.6407 55.2077 34.8143 55.2077 44.007 58.9383 44.007 62.6411 44.007 62.6411 42.4115 62.6411 40.8351 68.9052 40.8351 75.1693 40.8351 75.1693 35.612 75.1693 30.3889 79.1227 30.3889 83.0482 30.3889 83.0482 22.1649 83.0482 13.9219 85.1362 13.9219 87.2243 13.9219 87.2243 22.1649 87.2243 30.3889 93.739 30.3889 100.226 30.3889 100.226 35.612 100.226 40.8351 112.754 40.8351 125.282 40.8351 125.282 44.9566 125.282 49.0591 130.377 49.0591 135.5 49.0591 135.5 36.5617 135.5 24.0642 161.475 24.0642 187.45 24.0642 187.45 35.4601 187.45 46.8559 189.315 46.8559 191.181 46.8559 191.181 30.256 191.181 13.656 192.684 13.5611 194.187 13.4471 194.327 9.09768 194.438 4.74827 196.972 4.74827 199.533 4.74827 199.533 2.37413 199.533 0 206.02 0 212.507 0 212.507 2.37413 212.507 4.74827 215.291 4.74827 218.075 4.74827 218.075 9.17366 218.075 13.618 219.467 13.618 220.859 13.618 220.859 29.4393 220.859 45.2605 223.893 45.2605 226.9 45.2605 226.9 42.2596 226.9 39.2587 232.691 39.2587 238.51 39.2587 238.51 42.2596 238.51 45.2605 240.82 45.2605 243.131 45.2605 243.131 40.2083 243.131 35.1372 247.084 35.1372 251.038 35.1372 251.038 40.2083 251.038 45.2605 253.571 45.2605 256.133 45.2605 256.133 52.231 256.133 59.2014 259.39 59.2014 262.619 59.2014 262.619 61.1007 262.619 63 131.324 63 0 63 0 56.0296ZM200.925 34.3395 200.925 21.5192 198.364 21.5192 195.802 21.5192 195.802 34.3395 195.802 47.1598 198.364 47.1598 200.925 47.1598 200.925 34.3395ZM208.33 34.3395 208.33 21.5192 206.02 21.5192 203.709 21.5192 203.709 34.3395 203.709 47.1598 206.02 47.1598 208.33 47.1598 208.33 34.3395ZM216.237 34.3395 216.237 21.5192 213.899 21.5192 211.588 21.5192 211.588 34.3395 211.588 47.1598 213.899 47.1598 216.237 47.1598 216.237 34.3395ZM151.257 41.9367 151.257 39.5626 147.777 39.5626 144.297 39.5626 144.297 41.9367 144.297 44.3108 147.777 44.3108 151.257 44.3108 151.257 41.9367ZM165.178 41.9367 165.178 39.5626 161.698 39.5626 158.218 39.5626 158.218 41.9367 158.218 44.3108 161.698 44.3108 165.178 44.3108 165.178 41.9367ZM179.098 41.9367 179.098 39.5626 175.618 39.5626 172.138 39.5626 172.138 41.9367 172.138 44.3108 175.618 44.3108 179.098 44.3108 179.098 41.9367ZM151.257 32.7631 151.257 30.3889 147.777 30.3889 144.297 30.3889 144.297 32.7631 144.297 35.1372 147.777 35.1372 151.257 35.1372 151.257 32.7631ZM165.178 32.7631 165.178 30.3889 161.698 30.3889 158.218 30.3889 158.218 32.7631 158.218 35.1372 161.698 35.1372 165.178 35.1372 165.178 32.7631ZM179.098 32.7631 179.098 30.3889 175.618 30.3889 172.138 30.3889 172.138 32.7631 172.138 35.1372 175.618 35.1372 179.098 35.1372 179.098 32.7631ZM140.121 18.5182 140.121 16.1441 153.819 16.1441 167.516 16.1441 167.516 18.5182 167.516 20.8924 153.819 20.8924 140.121 20.8924 140.121 18.5182ZM171.692 15.0425 171.692 9.17366 177.483 9.17366 183.274 9.17366 183.274 15.0425 183.274 20.8924 177.483 20.8924 171.692 20.8924 171.692 15.0425Z" fill="#E5E5E5" fill-rule="evenodd" transform="matrix(1.00145 0 -0 1 0 91)"/><path d="M0 56.0296 0 49.0591 3.95335 49.0591 7.87886 49.0591 7.87886 39.2587 7.87886 29.4393 20.1844 29.4393 32.4899 29.4393 32.4899 39.2587 32.4899 49.0591 37.3619 49.0591 42.234 49.0591 42.234 46.552 42.234 44.026 46.5215 43.931 50.8089 43.836 50.9203 34.7383 51.0595 25.6407 53.1475 25.6407 55.2077 25.6407 55.2077 34.8143 55.2077 44.007 58.9383 44.007 62.6411 44.007 62.6411 42.4115 62.6411 40.8351 68.9052 40.8351 75.1693 40.8351 75.1693 35.612 75.1693 30.3889 79.1227 30.3889 83.0482 30.3889 83.0482 22.1649 83.0482 13.9219 85.1362 13.9219 87.2243 13.9219 87.2243 22.1649 87.2243 30.3889 93.739 30.3889 100.226 30.3889 100.226 35.612 100.226 40.8351 112.754 40.8351 125.282 40.8351 125.282 44.9566 125.282 49.0591 130.377 49.0591 135.5 49.0591 135.5 36.5617 135.5 24.0642 161.475 24.0642 187.45 24.0642 187.45 35.4601 187.45 46.8559 189.315 46.8559 191.181 46.8559 191.181 30.256 191.181 13.656 192.684 13.5611 194.187 13.4471 194.327 9.09768 194.438 4.74827 196.972 4.74827 199.533 4.74827 199.533 2.37413 199.533 0 206.02 0 212.507 0 212.507 2.37413 212.507 4.74827 215.291 4.74827 218.075 4.74827 218.075 9.17366 218.075 13.618 219.467 13.618 220.859 13.618 220.859 29.4393 220.859 45.2605 223.893 45.2605 226.9 45.2605 226.9 42.2596 226.9 39.2587 232.691 39.2587 238.51 39.2587 238.51 42.2596 238.51 45.2605 240.82 45.2605 243.131 45.2605 243.131 40.2083 243.131 35.1372 247.084 35.1372 251.038 35.1372 251.038 40.2083 251.038 45.2605 253.571 45.2605 256.133 45.2605 256.133 52.231 256.133 59.2014 259.39 59.2014 262.619 59.2014 262.619 61.1007 262.619 63 131.324 63 0 63 0 56.0296ZM200.925 34.3395 200.925 21.5192 198.364 21.5192 195.802 21.5192 195.802 34.3395 195.802 47.1598 198.364 47.1598 200.925 47.1598 200.925 34.3395ZM208.33 34.3395 208.33 21.5192 206.02 21.5192 203.709 21.5192 203.709 34.3395 203.709 47.1598 206.02 47.1598 208.33 47.1598 208.33 34.3395ZM216.237 34.3395 216.237 21.5192 213.899 21.5192 211.588 21.5192 211.588 34.3395 211.588 47.1598 213.899 47.1598 216.237 47.1598 216.237 34.3395ZM151.257 41.9367 151.257 39.5626 147.777 39.5626 144.297 39.5626 144.297 41.9367 144.297 44.3108 147.777 44.3108 151.257 44.3108 151.257 41.9367ZM165.178 41.9367 165.178 39.5626 161.698 39.5626 158.218 39.5626 158.218 41.9367 158.218 44.3108 161.698 44.3108 165.178 44.3108 165.178 41.9367ZM179.098 41.9367 179.098 39.5626 175.618 39.5626 172.138 39.5626 172.138 41.9367 172.138 44.3108 175.618 44.3108 179.098 44.3108 179.098 41.9367ZM151.257 32.7631 151.257 30.3889 147.777 30.3889 144.297 30.3889 144.297 32.7631 144.297 35.1372 147.777 35.1372 151.257 35.1372 151.257 32.7631ZM165.178 32.7631 165.178 30.3889 161.698 30.3889 158.218 30.3889 158.218 32.7631 158.218 35.1372 161.698 35.1372 165.178 35.1372 165.178 32.7631ZM179.098 32.7631 179.098 30.3889 175.618 30.3889 172.138 30.3889 172.138 32.7631 172.138 35.1372 175.618 35.1372 179.098 35.1372 179.098 32.7631ZM140.121 18.5182 140.121 16.1441 153.819 16.1441 167.516 16.1441 167.516 18.5182 167.516 20.8924 153.819 20.8924 140.121 20.8924 140.121 18.5182ZM171.692 15.0425 171.692 9.17366 177.483 9.17366 183.274 9.17366 183.274 15.0425 183.274 20.8924 177.483 20.8924 171.692 20.8924 171.692 15.0425Z" fill="#E5E5E5" fill-rule="evenodd" transform="matrix(1.00145 0 -0 1 279 91)"/><path d="M0 0 525.087 0.000104835" stroke="#7C7C7B" stroke-width="1.99711" stroke-miterlimit="8" fill="none" fill-rule="evenodd" transform="matrix(1.00145 0 -0 1 0 207)"/><rect x="0" y="0" width="61.9103" height="28.0001" fill="#FFFFFF" transform="matrix(1.00145 0 -0 1 437 177)"/><path d="M54.6962 0C11.2082 0 11.2082 0 11.2082 0 0 0 0 0 0 0 0 31 0 31 0 31 11.2082 31 11.2082 31 11.2082 31 54.6962 31 54.6962 31 54.6962 31 65.9045 31 65.9045 31 65.9045 31 65.9045 0 65.9045 0 65.9045 0L54.6962 0ZM63.0352 21.1601C59.2692 21.1601 56.2206 24.1208 56.2206 27.8652 54.6962 27.8652 54.6962 27.8652 54.6962 27.8652 45.0123 27.8652 45.0123 27.8652 45.0123 27.8652 37.57 27.8652 37.57 27.8652 37.57 27.8652 36.1354 28.4747 34.6111 28.823 32.9074 28.823 31.2934 28.823 29.7691 28.4747 28.3344 27.8652 20.8922 27.8652 20.8922 27.8652 20.8922 27.8652 11.2082 27.8652 11.2082 27.8652 11.2082 27.8652 9.68392 27.8652 9.68392 27.8652 9.68392 27.8652 9.68392 24.1208 6.54562 21.1601 2.77965 21.1601 2.77965 9.83989 2.77965 9.83989 2.77965 9.83989 6.54562 9.83989 9.68392 6.87921 9.68392 3.22191 11.2082 3.22191 11.2082 3.22191 11.2082 3.22191 20.8922 3.22191 20.8922 3.22191 20.8922 3.22191 28.3344 3.22191 28.3344 3.22191 28.3344 3.22191 29.7691 2.52528 31.2934 2.17697 32.9074 2.17697 34.6111 2.17697 36.1354 2.52528 37.57 3.22191 45.0123 3.22191 45.0123 3.22191 45.0123 3.22191 54.6962 3.22191 54.6962 3.22191 54.6962 3.22191 56.2206 3.22191 56.2206 3.22191 56.2206 3.22191 56.2206 6.87921 59.2692 9.83989 63.0352 9.83989L63.0352 21.1601Z" fill="#6A4742" fill-rule="evenodd" transform="matrix(1.00145 0 -0 1 435 175)"/><path d="M0 14C-3.55961e-15 6.26802 6.25894 0 13.9797 0 21.7005-3.56478e-15 27.9595 6.26802 27.9595 14 27.9595 21.732 21.7005 28.0001 13.9797 28.0001 6.25894 28.0001-5.33942e-15 21.732 0 14Z" fill="#6A4742" fill-rule="evenodd" transform="matrix(1.00145 0 -0 1 454 177)"/><path d="M9.88542 3.62496C9.8188 3.55684 9.73349 3.52271 9.62972 3.52271L7.72832 3.52271C7.6023 2.89415 7.36505 2.34856 7.01669 1.88641L9.60747 1.88641C9.71136 1.88641 9.79644 1.85241 9.8633 1.7844 9.92968 1.71616 9.96305 1.629 9.96305 1.52292L9.96305 0.363609C9.96305 0.257532 9.92968 0.170491 9.8633 0.102246 9.79632 0.0342418 9.71125 0 9.60735 0L0.35581 0C0.251919 0 0.166723 0.0342418 0.0999866 0.102246 0.0334866 0.170371 0 0.257532 0 0.363609L0 1.87492C0 1.97345 0.0352616 2.05858 0.105666 2.13053 0.176071 2.20249 0.259374 2.23853 0.35581 2.23853L1.96814 2.23853C3.53231 2.23853 4.52567 2.66643 4.9481 3.52259L0.35581 3.52259C0.251919 3.52259 0.166605 3.5566 0.0999866 3.62472 0.0334866 3.69308 0 3.78001 0 3.8862L0 5.04528C0 5.15135 0.03325 5.23851 0.0999866 5.30652 0.166723 5.37476 0.252156 5.40877 0.35581 5.40877L5.10405 5.40877C4.941 6.03015 4.56093 6.50355 3.96409 6.82932 3.36724 7.1551 2.57977 7.31805 1.60121 7.31805L0.35581 7.31805C0.259374 7.31805 0.176071 7.35408 0.105666 7.42604 0.0351432 7.49799 0 7.58324 0 7.68165L0 9.12496C0 9.22361 0.03325 9.30694 0.0999866 9.37495 1.52323 10.9204 3.36925 13.0831 5.63759 15.8636 5.70444 15.9546 5.79709 16 5.91566 16L8.08401 16C8.23973 16 8.3474 15.932 8.40645 15.7954 8.48064 15.659 8.46609 15.5302 8.36196 15.409 6.19763 12.6968 4.49608 10.6666 3.25814 9.31808 4.51833 9.16662 5.54139 8.74985 6.3272 8.06813 7.11301 7.38641 7.59106 6.49983 7.76168 5.40901L9.62972 5.40901C9.73349 5.40901 9.8188 5.375 9.88542 5.30676 9.95216 5.23875 9.98565 5.15159 9.98565 5.04552L9.98565 3.88644C9.98565 3.78025 9.95216 3.6932 9.88542 3.62496Z" fill="#FFFFFF" fill-rule="evenodd" transform="matrix(1.00145 0 -0 1 464 184)"/><rect x="0" y="0" width="61.8621" height="27.2378" fill="#FFFFFF" transform="matrix(0.967232 -0.258794 0.25847 0.966019 429.653 175.779)"/><path d="M54.1037 0C11.0868 0 11.0868 0 11.0868 0 0 0 0 0 0 0 0 30.9222 0 30.9222 0 30.9222 11.0868 30.9222 11.0868 30.9222 11.0868 30.9222 54.1037 30.9222 54.1037 30.9222 54.1037 30.9222 65.1905 30.9222 65.1905 30.9222 65.1905 30.9222 65.1905 0 65.1905 0 65.1905 0L54.1037 0ZM62.3523 21.107C58.6271 21.107 55.6115 24.0602 55.6115 27.7952 54.1037 27.7952 54.1037 27.7952 54.1037 27.7952 44.5247 27.7952 44.5247 27.7952 44.5247 27.7952 37.163 27.7952 37.163 27.7952 37.163 27.7952 35.7439 28.4032 34.2361 28.7507 32.5509 28.7507 30.9544 28.7507 29.4466 28.4032 28.0275 27.7952 20.6658 27.7952 20.6658 27.7952 20.6658 27.7952 11.0868 27.7952 11.0868 27.7952 11.0868 27.7952 9.57901 27.7952 9.57901 27.7952 9.57901 27.7952 9.57901 24.0602 6.4747 21.107 2.74953 21.107 2.74953 9.81519 2.74953 9.81519 2.74953 9.81519 6.4747 9.81519 9.57901 6.86195 9.57901 3.21382 11.0868 3.21382 11.0868 3.21382 11.0868 3.21382 20.6658 3.21382 20.6658 3.21382 20.6658 3.21382 28.0275 3.21382 28.0275 3.21382 28.0275 3.21382 29.4466 2.51894 30.9544 2.1715 32.5509 2.1715 34.2361 2.1715 35.7439 2.51894 37.163 3.21382 44.5247 3.21382 44.5247 3.21382 44.5247 3.21382 54.1037 3.21382 54.1037 3.21382 54.1037 3.21382 55.6115 3.21382 55.6115 3.21382 55.6115 3.21382 55.6115 6.86195 58.6271 9.81519 62.3523 9.81519L62.3523 21.107Z" fill="#6A4742" fill-rule="evenodd" transform="matrix(0.967232 -0.258794 0.25847 0.966019 427.518 174.108)"/><path d="M0 14.2674C-3.59692e-15 6.38772 6.32454 0 14.1263 0 21.928-3.63285e-15 28.2525 6.38772 28.2525 14.2674 28.2525 22.147 21.928 28.5348 14.1263 28.5348 6.32454 28.5348-5.39538e-15 22.147 0 14.2674Z" fill="#6A4742" fill-rule="evenodd" transform="matrix(0.967232 -0.258794 0.25847 0.966019 445.774 170.789)"/><path d="M10.1229 3.66866C10.0547 3.59972 9.96735 3.56518 9.86108 3.56518L7.914 3.56518C7.78495 2.92904 7.542 2.37687 7.18528 1.90915L9.8383 1.90915C9.94469 1.90915 10.0318 1.87474 10.1003 1.80592 10.1682 1.73685 10.2024 1.64864 10.2024 1.54128L10.2024 0.367993C10.2024 0.260637 10.1682 0.172546 10.1003 0.103479 10.0317 0.0346546 9.94457 0 9.83818 0L0.364359 0C0.257972 0 0.170729 0.0346546 0.102389 0.103479 0.0342912 0.172425 0 0.260637 0 0.367993L0 1.89752C0 1.99724 0.0361088 2.0834 0.108205 2.15622 0.180301 2.22904 0.265605 2.26551 0.364359 2.26551L2.01543 2.26551C3.61718 2.26551 4.6344 2.69858 5.06698 3.56506L0.364359 3.56506C0.257972 3.56506 0.170608 3.59947 0.102389 3.66842 0.0342912 3.73761 0 3.82558 0 3.93306L0 5.1061C0 5.21346 0.0340489 5.30167 0.102389 5.37049 0.170729 5.43956 0.258214 5.47397 0.364359 5.47397L5.22668 5.47397C5.05971 6.10285 4.67051 6.58195 4.05933 6.91165 3.44814 7.24136 2.64175 7.40627 1.63968 7.40627L0.364359 7.40627C0.265605 7.40627 0.180301 7.44274 0.108205 7.51557 0.0359876 7.58839 0 7.67466 0 7.77426L0 9.23497C0 9.33481 0.0340489 9.41915 0.102389 9.48797 1.55983 11.052 3.4502 13.2408 5.77304 16.0549 5.8415 16.147 5.93638 16.1929 6.05779 16.1929L8.27823 16.1929C8.43769 16.1929 8.54796 16.1241 8.60842 15.9858 8.6844 15.8478 8.66949 15.7174 8.56286 15.5948 6.34654 12.8498 4.60411 10.7952 3.33642 9.43042 4.62689 9.27713 5.67453 8.85534 6.47922 8.1654 7.28391 7.47546 7.77344 6.5782 7.94817 5.47422L9.86108 5.47422C9.96735 5.47422 10.0547 5.4398 10.1229 5.37074 10.1913 5.30191 10.2256 5.2137 10.2256 5.10634L10.2256 3.9333C10.2256 3.82582 10.1913 3.73773 10.1229 3.66866Z" fill="#FFFFFF" fill-rule="evenodd" transform="matrix(0.967232 -0.258794 0.25847 0.966019 457.472 174.687)"/><rect x="0" y="0" width="61.8785" height="27.245" fill="#FFFFFF" transform="matrix(0.866966 -0.499819 0.499457 0.866339 421.912 174.019)"/><path d="M54.118 0C11.0898 0 11.0898 0 11.0898 0 0 0 0 0 0 0 0 30.9304 0 30.9304 0 30.9304 11.0898 30.9304 11.0898 30.9304 11.0898 30.9304 54.118 30.9304 54.118 30.9304 54.118 30.9304 65.2078 30.9304 65.2078 30.9304 65.2078 30.9304 65.2078 0 65.2078 0 65.2078 0L54.118 0ZM62.3688 21.1126C58.6427 21.1126 55.6262 24.0666 55.6262 27.8026 54.118 27.8026 54.118 27.8026 54.118 27.8026 44.5365 27.8026 44.5365 27.8026 44.5365 27.8026 37.1729 27.8026 37.1729 27.8026 37.1729 27.8026 35.7534 28.4108 34.2452 28.7583 32.5595 28.7583 30.9626 28.7583 29.4544 28.4108 28.0349 27.8026 20.6713 27.8026 20.6713 27.8026 20.6713 27.8026 11.0898 27.8026 11.0898 27.8026 11.0898 27.8026 9.58155 27.8026 9.58155 27.8026 9.58155 27.8026 9.58155 24.0666 6.47642 21.1126 2.75026 21.1126 2.75026 9.81779 2.75026 9.81779 2.75026 9.81779 6.47642 9.81779 9.58155 6.86377 9.58155 3.21468 11.0898 3.21468 11.0898 3.21468 11.0898 3.21468 20.6713 3.21468 20.6713 3.21468 20.6713 3.21468 28.0349 3.21468 28.0349 3.21468 28.0349 3.21468 29.4544 2.51961 30.9626 2.17208 32.5595 2.17208 34.2452 2.17208 35.7534 2.51961 37.1729 3.21468 44.5365 3.21468 44.5365 3.21468 44.5365 3.21468 54.118 3.21468 54.118 3.21468 54.118 3.21468 55.6262 3.21468 55.6262 3.21468 55.6262 3.21468 55.6262 6.86377 58.6427 9.81779 62.3688 9.81779L62.3688 21.1126Z" fill="#6A4742" fill-rule="evenodd" transform="matrix(0.866966 -0.499819 0.499457 0.866339 419.417 172.957)"/><path d="M0 14.2712C-3.59788e-15 6.38942 6.32622 0 14.13 0 21.9338-3.63382e-15 28.26 6.38942 28.26 14.2712 28.26 22.1529 21.9338 28.5423 14.13 28.5423 6.32622 28.5423-5.39681e-15 22.1529 0 14.2712Z" fill="#6A4742" fill-rule="evenodd" transform="matrix(0.866966 -0.499819 0.499457 0.866339 436.19 165.033)"/><path d="M10.1256 3.66964C10.0574 3.60067 9.96999 3.56613 9.8637 3.56613L7.9161 3.56613C7.78702 2.92982 7.544 2.3775 7.18718 1.90966L9.84091 1.90966C9.94733 1.90966 10.0345 1.87524 10.103 1.8064 10.1709 1.73731 10.2051 1.64908 10.2051 1.54169L10.2051 0.368091C10.2051 0.260706 10.1709 0.172592 10.103 0.103507 10.0344 0.0346638 9.94721 0 9.84079 0L0.364456 0C0.25804 0 0.170774 0.0346638 0.102416 0.103507 0.0343003 0.172471 0 0.260706 0 0.368091L0 1.89803C0 1.99777 0.0361183 2.08395 0.108234 2.15679 0.180349 2.22963 0.265676 2.26612 0.364456 2.26612L2.01596 2.26612C3.61814 2.26612 4.63563 2.69929 5.06832 3.56601L0.364456 3.56601C0.25804 3.56601 0.170653 3.60043 0.102416 3.66939 0.0343003 3.7386 0 3.82659 0 3.9341L0 5.10746C0 5.21484 0.0340579 5.30308 0.102416 5.37192 0.170774 5.44101 0.258282 5.47543 0.364456 5.47543L5.22807 5.47543C5.06105 6.10447 4.67175 6.5837 4.0604 6.91349 3.44906 7.24328 2.64246 7.40824 1.64011 7.40824L0.364456 7.40824C0.265676 7.40824 0.180349 7.44472 0.108234 7.51756 0.0359971 7.5904 0 7.6767 0 7.77633L0 9.23742C0 9.33729 0.0340579 9.42165 0.102416 9.49049 1.56024 11.055 3.45112 13.2444 5.77457 16.0592 5.84305 16.1513 5.93795 16.1972 6.0594 16.1972L8.28043 16.1972C8.43993 16.1972 8.55023 16.1284 8.61071 15.9901 8.6867 15.852 8.67179 15.7216 8.56514 15.599 6.34822 12.8532 4.60533 10.798 3.33731 9.43292 4.62812 9.2796 5.67603 8.85769 6.48094 8.16757 7.28584 7.47744 7.7755 6.57994 7.95027 5.47567L9.8637 5.47567C9.96999 5.47567 10.0574 5.44125 10.1256 5.37216 10.194 5.30332 10.2283 5.21508 10.2283 5.1077L10.2283 3.93434C10.2283 3.82684 10.194 3.73872 10.1256 3.66964Z" fill="#FFFFFF" fill-rule="evenodd" transform="matrix(0.866966 -0.499819 0.499457 0.866339 448.5 165.775)"/><path d="M-8.70159-19.5416C-6.26312-19.0528-6.09397-15.6962-4.70338-14.7342-2.37036-13.1144 0.742524-15.0514-0.160368-18.2078-2.99865-28.1554-19.1782-29.1018-21.542-18.0206-21.9506-16.107-22.1439-2.3946-21.7704-0.5122L-15.7556 0C-15.0658-2.4206-17.0451-10.4364-16.4366-13.8736-15.8281-17.3108-16.3092-20.8286-12.1067-20.6284-10.336-20.54-9.49684-20.5504-8.70159-19.5416Z" fill="#D68D87" fill-rule="evenodd" transform="matrix(1.00145 8.75495e-08 8.74228e-08 -1 279 180)"/><path d="M0.00952818 78.7958 4.99276 79 4.99276 0.425463C4.03042 0.255278 2.87751 0.153167 1.98186 0.187204 0.600275 0.23826 0.285845 0 0 2.07626L0.00952818 78.7958Z" fill="#D68D87" fill-rule="evenodd" transform="matrix(1.00145 0 -0 1 258 102)"/><path d="M5.39219 72.562C6.56192 72.7049 16.3002 70.5528 18.6016 70.1052 23.1284 69.2387 27.7788 68.6387 32.4482 68.134 40.741 67.2484 53.7317 66.5533 62.0529 67.8198 67.4546 67.9245 74.4064 69.153 79.3231 70.0957 82.2332 70.648 90.6306 72.1145 93.3029 72.962L95.0908 73.619C95.1478 73.6476 95.2619 73.7047 95.3475 73.7619L97.8582 73.9428 97.202 70.667C96.8406 70.1052 94.6628 61.5063 94.2063 59.9256 91.1441 49.1651 87.1118 38.8045 81.9289 28.8915 76.5652 18.6357 65.0105 3.4567 51.3066 2.12353 29.4621 0 14.9403 28.5296 8.57804 45.337 7.10399 49.2603 1.88299 63.9727 1.85446 67.4579 1.15071 68.1817 0.13314 73.0001 0 73.9999 1.1412 73.9809 4.42216 73.3238 5.39219 72.562Z" fill="#D68D87" fill-rule="evenodd" transform="matrix(1.00145 0 -0 1 212 32)"/><path d="M35.3755 64.6539 36.3347 67.1519C36.5532 68.0413 36.7241 69.2998 37.0945 70 39.9625 68.628 41.9378 66.1395 45.4611 64.9946 46.1829 63.2346 58.4433 60.0743 61.7766 59.6201 73.1633 58.0589 77.1044 60.4433 81.8813 60.3487 79.9725 55.0973 72.2991 42.5601 68.8612 38.1224 63.2106 30.8556 57.807 25.415 50.9028 20.2866 39.3832 11.7234 28.9652 6.81265 15.0049 2.96161 12.2129 2.18572 2.83954 0 0 0.113544 15.0809 11.6099 23.3336 26.7491 29.8864 45.2379 30.969 48.2846 35.6604 62.1843 35.3755 64.6539Z" fill="#D68D87" fill-rule="evenodd" transform="matrix(1.00145 0 -0 1 276 35)"/><path d="M36.416 64.8969C37.9353 65.3874 39.2742 66.5004 40.4991 66.8117 40.8694 67.2834 40.6226 66.9815 41.0499 67.3683 41.1163 67.4343 41.5057 67.7644 41.6101 67.8493 42.1988 68.3304 42.2083 68.3587 42.8446 68.7643L44.7247 70 45.152 68.67 50.8779 48.484C53.1949 41.7302 55.3789 35.9291 58.4365 29.6186 64.922 16.2148 70.9328 9.2629 81.8813 0.216952 75.5762 0 59.2056 5.22571 53.7741 7.41409 33.5008 15.5451 16.9593 29.7224 6.13422 48.5689 4.50096 51.4176 1.18696 57.0206 0 60.2749 2.90568 60.3315 6.41909 59.2656 9.60014 59.1335 13.2275 58.9826 16.8738 59.0769 20.2828 59.5108 23.4923 59.9259 35.7798 63.2462 36.416 64.8969Z" fill="#D68D87" fill-rule="evenodd" transform="matrix(1.00145 0 -0 1 164 35)"/><path d="M2.35364 2.58095 2.36362 14.6762C2.38356 19.9524 0 16.0095 0.289219 19.9524L7.76902 20C7.98842 16.8095 7.0709 18.8667 6.12346 17.019 4.40809 14.5809 7.05096 3.00952 4.93667 0.0666666L3.12157 0C2.593 0.790476 2.35364 1.35238 2.35364 2.58095Z" fill="#D68D87" fill-rule="evenodd" transform="matrix(1.00145 0 -0 1 257 12)"/><path d="M61.0158 82.1064C2.43333 82.1064 2.43333 82.1064 2.43333 82.1064 1.095 82.1064 0 81.0117 0 79.6736 0 2.43278 0 2.43278 0 2.43278 0 1.09475 1.095 0 2.43333 0 61.0158 0 61.0158 0 61.0158 0 62.415 0 63.51 1.09475 63.51 2.43278 63.51 79.6736 63.51 79.6736 63.51 79.6736 63.51 81.0117 62.415 82.1064 61.0158 82.1064" fill="#6A4742" fill-rule="evenodd" transform="matrix(1.00144 -0.00487905 0.00487199 0.999988 50.2526 124.416)"/><rect x="0" y="0" width="51.8167" height="71.9063" fill="#F3EEDD" transform="matrix(1.00144 -0.00487905 0.00487199 0.999988 56.119 129.6)"/><rect x="0" y="0" width="56.9983" height="78.3529" fill="#FFFFFF" transform="matrix(1.00144 -0.00487905 0.00487199 0.999988 53.5069 126.051)"/><path d="M17.1243 0.901581C0.343468 0.901581 0.343468 0.901581 0.343468 0.901581 0.147201 0.901581 0 0.721264 0 0.420738 0 0.180316 0.147201 0 0.343468 0 17.1243 0 17.1243 0 17.1243 0 17.3697 0 17.5169 0.180316 17.5169 0.420738 17.5169 0.721264 17.3697 0.901581 17.1243 0.901581" fill="#7C7C7B" fill-rule="evenodd" transform="matrix(1.00144 -0.00487905 0.00487199 0.999988 77.4089 137.189)"/><path d="M28.1206 0.957982C0.343533 0.957982 0.343533 0.957982 0.343533 0.957982 0.147228 0.957982 0 0.718486 0 0.478991 0 0.239495 0.147228 0 0.343533 0 28.1206 0 28.1206 0 28.1206 0 28.366 0 28.5132 0.239495 28.5132 0.478991 28.5132 0.718486 28.366 0.957982 28.1206 0.957982" fill="#7C7C7B" fill-rule="evenodd" transform="matrix(1.00144 -0.00487905 0.00487199 0.999988 77.4165 139.735)"/><path d="M28.1206 0.957982C0.343533 0.957982 0.343533 0.957982 0.343533 0.957982 0.147228 0.957982 0 0.718486 0 0.478991 0 0.239495 0.147228 0 0.343533 0 28.1206 0 28.1206 0 28.1206 0 28.366 0 28.5132 0.239495 28.5132 0.478991 28.5132 0.718486 28.366 0.957982 28.1206 0.957982" fill="#7C7C7B" fill-rule="evenodd" transform="matrix(1.00144 -0.00487905 0.00487199 0.999988 77.4223 141.736)"/><path d="M8.69484 0.986182C0.343864 0.986182 0.343864 0.986182 0.343864 0.986182 0.14737 0.986182 0 0.739637 0 0.493091 0 0.246546 0.14737 0 0.343864 0 8.69484 0 8.69484 0 8.69484 0 8.94046 0 9.08783 0.246546 9.08783 0.493091 9.08783 0.739637 8.94046 0.986182 8.69484 0.986182" fill="#7C7C7B" fill-rule="evenodd" transform="matrix(1.00144 -0.00487905 0.00487199 0.999988 77.4283 143.767)"/><path d="M28.2668 0.901581C0.566956 0.901581 0.566956 0.901581 0.566956 0.901581 0.242981 0.901581 0 0.721264 0 0.420738 0 0.180316 0.242981 0 0.566956 0 28.2668 0 28.2668 0 28.2668 0 28.6718 0 28.9147 0.180316 28.9147 0.420738 28.9147 0.721264 28.6718 0.901581 28.2668 0.901581" fill="#7C7C7B" fill-rule="evenodd" transform="matrix(1.00144 -0.00487905 0.00487199 0.999988 58.9759 149.134)"/><path d="M46.418 0.957982C0.567061 0.957982 0.567061 0.957982 0.567061 0.957982 0.243026 0.957982 0 0.718486 0 0.478991 0 0.239495 0.243026 0 0.567061 0 46.418 0 46.418 0 46.418 0 46.823 0 47.0661 0.239495 47.0661 0.478991 47.0661 0.718486 46.823 0.957982 46.418 0.957982" fill="#7C7C7B" fill-rule="evenodd" transform="matrix(1.00144 -0.00487905 0.00487199 0.999988 58.9884 151.698)"/><path d="M46.418 0.957982C0.567061 0.957982 0.567061 0.957982 0.567061 0.957982 0.243026 0.957982 0 0.718486 0 0.478991 0 0.239495 0.243026 0 0.567061 0 46.418 0 46.418 0 46.418 0 46.823 0 47.0661 0.239495 47.0661 0.478991 47.0661 0.718486 46.823 0.957982 46.418 0.957982" fill="#7C7C7B" fill-rule="evenodd" transform="matrix(1.00144 -0.00487905 0.00487199 0.999988 58.998 153.698)"/><path d="M5.60358 5.9011C4.56814 5.9011 4.56814 5.9011 4.56814 5.9011 3.53269 5.9011 2.74088 5.04939 2.74088 4.01518 2.74088 2.98097 3.53269 2.1901 4.56814 2.1901 5.60358 2.1901 5.60358 2.1901 5.60358 2.1901 6.63902 2.1901 7.43083 2.98097 7.43083 4.01518 7.43083 5.04939 6.63902 5.9011 5.60358 5.9011M6.15176 0C4.01996 0 4.01996 0 4.01996 0 1.82725 0 0 1.82508 0 4.01518 0 6.26611 1.82725 8.03036 4.01996 8.03036 6.15176 8.03036 6.15176 8.03036 6.15176 8.03036 8.34446 8.03036 10.1717 6.26611 10.1717 4.01518 10.1717 1.82508 8.34446 0 6.15176 0" fill="#D0D0D0" fill-rule="evenodd" transform="matrix(1.00144 -0.00487905 0.00487199 0.999988 75.0489 117.661)"/><path d="M7.30343 0C4.80809 0 4.80809 0 4.80809 0 2.13017 0 0 2.19458 0 4.81588 0 7.49815 2.13017 9.69272 4.80809 9.69272 7.30343 9.69272 7.30343 9.69272 7.30343 9.69272 9.98136 9.69272 12.1724 7.49815 12.1724 4.81588 12.1724 2.19458 9.98136 0 7.30343 0M6.63395 7.07142C5.47757 7.07142 5.47757 7.07142 5.47757 7.07142 4.19947 7.07142 3.22568 6.09605 3.22568 4.81588 3.22568 3.59667 4.19947 2.56034 5.47757 2.56034 6.63395 2.56034 6.63395 2.56034 6.63395 2.56034 7.91205 2.56034 8.88584 3.59667 8.88584 4.81588 8.88584 6.09605 7.91205 7.07142 6.63395 7.07142" fill="#7C7C7B" fill-rule="evenodd" transform="matrix(1.00144 -0.00487905 0.00487199 0.999988 74.0857 116.876)"/><path d="M35.1644 9.10104C0 9.10104 0 9.10104 0 9.10104 0 2.36627 0 2.36627 0 2.36627 0 1.03145 1.03425 0 2.37268 0 32.7917 0 32.7917 0 32.7917 0 34.0693 0 35.1644 1.03145 35.1644 2.36627L35.1644 9.10104Z" fill="#7C7C7B" fill-rule="evenodd" transform="matrix(1.00144 -0.00487905 0.00487199 0.999988 62.598 122.061)"/><path d="M28.2668 0.901581C0.566956 0.901581 0.566956 0.901581 0.566956 0.901581 0.242981 0.901581 0 0.721264 0 0.420738 0 0.180316 0.242981 0 0.566956 0 28.2668 0 28.2668 0 28.2668 0 28.6718 0 28.9147 0.180316 28.9147 0.420738 28.9147 0.721264 28.6718 0.901581 28.2668 0.901581" fill="#7C7C7B" fill-rule="evenodd" transform="matrix(1.00144 -0.00487905 0.00487199 0.999988 58.8204 159.969)"/><path d="M46.418 0.957982C0.567061 0.957982 0.567061 0.957982 0.567061 0.957982 0.243026 0.957982 0 0.718486 0 0.478991 0 0.239495 0.243026 0 0.567061 0 46.418 0 46.418 0 46.418 0 46.823 0 47.0661 0.239495 47.0661 0.478991 47.0661 0.718486 46.823 0.957982 46.418 0.957982" fill="#7C7C7B" fill-rule="evenodd" transform="matrix(1.00144 -0.00487905 0.00487199 0.999988 58.8329 162.533)"/><path d="M46.418 0.957982C0.567061 0.957982 0.567061 0.957982 0.567061 0.957982 0.243026 0.957982 0 0.718486 0 0.478991 0 0.239495 0.243026 0 0.567061 0 46.418 0 46.418 0 46.418 0 46.823 0 47.0661 0.239495 47.0661 0.478991 47.0661 0.718486 46.823 0.957982 46.418 0.957982" fill="#7C7C7B" fill-rule="evenodd" transform="matrix(1.00144 -0.00487905 0.00487199 0.999988 58.8426 164.534)"/><path d="M14.3524 0.986182C0.567611 0.986182 0.567611 0.986182 0.567611 0.986182 0.243262 0.986182 0 0.739637 0 0.493091 0 0.246546 0.243262 0 0.567611 0 14.3524 0 14.3524 0 14.3524 0 14.7579 0 15.0011 0.246546 15.0011 0.493091 15.0011 0.739637 14.7579 0.986182 14.3524 0.986182" fill="#7C7C7B" fill-rule="evenodd" transform="matrix(1.00144 -0.00487905 0.00487199 0.999988 58.8525 166.534)"/><path d="M28.2668 0.901581C0.566956 0.901581 0.566956 0.901581 0.566956 0.901581 0.242981 0.901581 0 0.721264 0 0.420738 0 0.180316 0.242981 0 0.566956 0 28.2668 0 28.2668 0 28.2668 0 28.6718 0 28.9147 0.180316 28.9147 0.420738 28.9147 0.721264 28.6718 0.901581 28.2668 0.901581" fill="#7C7C7B" fill-rule="evenodd" transform="matrix(1.00144 -0.00487905 0.00487199 0.999988 58.9758 171.886)"/><path d="M46.418 0.957982C0.567061 0.957982 0.567061 0.957982 0.567061 0.957982 0.243026 0.957982 0 0.718486 0 0.478991 0 0.239495 0.243026 0 0.567061 0 46.418 0 46.418 0 46.418 0 46.823 0 47.0661 0.239495 47.0661 0.478991 47.0661 0.718486 46.823 0.957982 46.418 0.957982" fill="#7C7C7B" fill-rule="evenodd" transform="matrix(1.00144 -0.00487905 0.00487199 0.999988 58.9883 174.45)"/><path d="M46.418 0.957982C0.567061 0.957982 0.567061 0.957982 0.567061 0.957982 0.243026 0.957982 0 0.718486 0 0.478991 0 0.239495 0.243026 0 0.567061 0 46.418 0 46.418 0 46.418 0 46.823 0 47.0661 0.239495 47.0661 0.478991 47.0661 0.718486 46.823 0.957982 46.418 0.957982" fill="#7C7C7B" fill-rule="evenodd" transform="matrix(1.00144 -0.00487905 0.00487199 0.999988 58.998 176.451)"/><path d="M28.2668 0.901581C0.566956 0.901581 0.566956 0.901581 0.566956 0.901581 0.242981 0.901581 0 0.721264 0 0.420738 0 0.180316 0.242981 0 0.566956 0 28.2668 0 28.2668 0 28.2668 0 28.6718 0 28.9147 0.180316 28.9147 0.420738 28.9147 0.721264 28.6718 0.901581 28.2668 0.901581" fill="#7C7C7B" fill-rule="evenodd" transform="matrix(1.00144 -0.00487905 0.00487199 0.999988 58.8203 182.781)"/><path d="M46.418 0.957982C0.567061 0.957982 0.567061 0.957982 0.567061 0.957982 0.243026 0.957982 0 0.718486 0 0.478991 0 0.239495 0.243026 0 0.567061 0 46.418 0 46.418 0 46.418 0 46.823 0 47.0661 0.239495 47.0661 0.478991 47.0661 0.718486 46.823 0.957982 46.418 0.957982" fill="#7C7C7B" fill-rule="evenodd" transform="matrix(1.00144 -0.00487905 0.00487199 0.999988 58.8328 185.345)"/><path d="M46.418 0.957982C0.567061 0.957982 0.567061 0.957982 0.567061 0.957982 0.243026 0.957982 0 0.718486 0 0.478991 0 0.239495 0.243026 0 0.567061 0 46.418 0 46.418 0 46.418 0 46.823 0 47.0661 0.239495 47.0661 0.478991 47.0661 0.718486 46.823 0.957982 46.418 0.957982" fill="#7C7C7B" fill-rule="evenodd" transform="matrix(1.00144 -0.00487905 0.00487199 0.999988 58.8426 187.346)"/><path d="M14.3524 0.986182C0.567611 0.986182 0.567611 0.986182 0.567611 0.986182 0.243262 0.986182 0 0.739637 0 0.493091 0 0.246546 0.243262 0 0.567611 0 14.3524 0 14.3524 0 14.3524 0 14.7579 0 15.0011 0.246546 15.0011 0.493091 15.0011 0.739637 14.7579 0.986182 14.3524 0.986182" fill="#7C7C7B" fill-rule="evenodd" transform="matrix(1.00144 -0.00487905 0.00487199 0.999988 58.8524 189.346)"/><path d="M28.2668 0.901581C0.566956 0.901581 0.566956 0.901581 0.566956 0.901581 0.242981 0.901581 0 0.721264 0 0.420738 0 0.180316 0.242981 0 0.566956 0 28.2668 0 28.2668 0 28.2668 0 28.6718 0 28.9147 0.180316 28.9147 0.420738 28.9147 0.721264 28.6718 0.901581 28.2668 0.901581" fill="#7C7C7B" fill-rule="evenodd" transform="matrix(1.00144 -0.00487905 0.00487199 0.999988 58.9757 194.698)"/><path d="M46.418 0.957982C0.567061 0.957982 0.567061 0.957982 0.567061 0.957982 0.243026 0.957982 0 0.718486 0 0.478991 0 0.239495 0.243026 0 0.567061 0 46.418 0 46.418 0 46.418 0 46.823 0 47.0661 0.239495 47.0661 0.478991 47.0661 0.718486 46.823 0.957982 46.418 0.957982" fill="#7C7C7B" fill-rule="evenodd" transform="matrix(1.00144 -0.00487905 0.00487199 0.999988 58.9883 197.262)"/><path d="M46.418 0.957982C0.567061 0.957982 0.567061 0.957982 0.567061 0.957982 0.243026 0.957982 0 0.718486 0 0.478991 0 0.239495 0.243026 0 0.567061 0 46.418 0 46.418 0 46.418 0 46.823 0 47.0661 0.239495 47.0661 0.478991 47.0661 0.718486 46.823 0.957982 46.418 0.957982" fill="#7C7C7B" fill-rule="evenodd" transform="matrix(1.00144 -0.00487905 0.00487199 0.999988 58.9979 199.263)"/><path d="M0 6.99999C-1.77981e-15 3.134 3.12947 0 6.98987 0 10.8503-1.78238e-15 13.9797 3.134 13.9797 6.99999 13.9797 10.866 10.8503 14 6.98987 14 3.12947 14-2.66971e-15 10.866 0 6.99999Z" fill="#D68D87" fill-rule="evenodd" transform="matrix(1.00145 0 -0 1 59 133)"/><path d="M0 2.66309 2.6631 2.66309 2.6631 0 5.32533 0 5.32533 2.66309 7.98842 2.66309 7.98842 6.33688 5.32533 6.33688 5.32533 8.99998 2.6631 8.99998 2.6631 6.33688 0 6.33688Z" fill="#FFFFFF" fill-rule="evenodd" transform="matrix(1.00145 0 -0 1 62 135)"/><path d="M0 1.95941C-2.26777e-16 0.877256 0.877257 -2.26777e-16 1.95941 -2.26777e-16L38.9813 0C40.0634 -2.26777e-16 40.9407 0.877256 40.9407 1.95941L40.9407 55.0406C40.9407 56.1228 40.0634 57 38.9813 57L1.95941 57C0.877257 57 0 56.1228 2.26777e-16 55.0406Z" fill="#D68D87" fill-rule="evenodd" transform="matrix(1.00145 0 -0 1 23 150)"/><rect x="0" y="0" width="35.9498" height="48" fill="#FFFFFF" transform="matrix(1.00145 0 -0 1 25 153)"/><rect x="0" y="0" width="35.9479" height="6.00002" fill="#D68D87" transform="matrix(1.00145 0 -0 1 25 158)"/><path d="M0 0.832146C0 0.372565 0.372565 0 0.832147 0L4.16062 0C4.6202 0 4.99276 0.372565 4.99276 0.832146L4.99276 4.16785C4.99276 4.62743 4.6202 5 4.16062 5L0.832147 5C0.372565 5 0 4.62743 0 4.16785Z" fill="#7C7C7B" fill-rule="evenodd" transform="matrix(1.00145 0 -0 1 29 167)"/><path d="M0 0.832146C0 0.372565 0.372565 0 0.832147 0L4.16062 0C4.6202 0 4.99276 0.372565 4.99276 0.832146L4.99276 4.16785C4.99276 4.62743 4.6202 5 4.16062 5L0.832147 5C0.372565 5 0 4.62743 0 4.16785Z" fill="#7C7C7B" fill-rule="evenodd" transform="matrix(1.00145 0 -0 1 37 167)"/><path d="M0 0.832146C0 0.372565 0.372565 0 0.832147 0L4.16062 0C4.6202 0 4.99276 0.372565 4.99276 0.832146L4.99276 4.16785C4.99276 4.62743 4.6202 5 4.16062 5L0.832147 5C0.372565 5 0 4.62743 0 4.16785Z" fill="#7C7C7B" fill-rule="evenodd" transform="matrix(1.00145 0 -0 1 45 167)"/><path d="M0 0.832146C0 0.372565 0.372565 0 0.832147 0L4.16062 0C4.6202 0 4.99276 0.372565 4.99276 0.832146L4.99276 4.16785C4.99276 4.62743 4.6202 5 4.16062 5L0.832147 5C0.372565 5 0 4.62743 0 4.16785Z" fill="#7C7C7B" fill-rule="evenodd" transform="matrix(1.00145 0 -0 1 52 167)"/><path d="M0 0.832146C0 0.372565 0.372565 0 0.832147 0L4.16062 0C4.6202 0 4.99276 0.372565 4.99276 0.832146L4.99276 4.16785C4.99276 4.62743 4.6202 5 4.16062 5L0.832147 5C0.372565 5 0 4.62743 0 4.16785Z" fill="#7C7C7B" fill-rule="evenodd" transform="matrix(1.00145 0 -0 1 29 175)"/><path d="M0 0.832146C0 0.372565 0.372565 0 0.832147 0L4.16062 0C4.6202 0 4.99276 0.372565 4.99276 0.832146L4.99276 4.16785C4.99276 4.62743 4.6202 5 4.16062 5L0.832147 5C0.372565 5 0 4.62743 0 4.16785Z" fill="#7C7C7B" fill-rule="evenodd" transform="matrix(1.00145 0 -0 1 37 175)"/><path d="M0 0.832146C0 0.372565 0.372565 0 0.832147 0L4.16062 0C4.6202 0 4.99276 0.372565 4.99276 0.832146L4.99276 4.16785C4.99276 4.62743 4.6202 5 4.16062 5L0.832147 5C0.372565 5 0 4.62743 0 4.16785Z" fill="#7C7C7B" fill-rule="evenodd" transform="matrix(1.00145 0 -0 1 45 175)"/><path d="M0 0.832146C0 0.372565 0.372565 0 0.832147 0L4.16062 0C4.6202 0 4.99276 0.372565 4.99276 0.832146L4.99276 4.16785C4.99276 4.62743 4.6202 5 4.16062 5L0.832147 5C0.372565 5 0 4.62743 0 4.16785Z" fill="#7C7C7B" fill-rule="evenodd" transform="matrix(1.00145 0 -0 1 52 175)"/><path d="M0 0.832146C0 0.372565 0.372565 0 0.832147 0L4.16062 0C4.6202 0 4.99276 0.372565 4.99276 0.832146L4.99276 4.16785C4.99276 4.62743 4.6202 5 4.16062 5L0.832147 5C0.372565 5 0 4.62743 0 4.16785Z" fill="#7C7C7B" fill-rule="evenodd" transform="matrix(1.00145 0 -0 1 29 182)"/><path d="M0 0.832146C0 0.372565 0.372565 0 0.832147 0L4.16062 0C4.6202 0 4.99276 0.372565 4.99276 0.832146L4.99276 4.16785C4.99276 4.62743 4.6202 5 4.16062 5L0.832147 5C0.372565 5 0 4.62743 0 4.16785Z" fill="#7C7C7B" fill-rule="evenodd" transform="matrix(1.00145 0 -0 1 37 182)"/><path d="M0 0.832146C0 0.372565 0.372565 0 0.832147 0L4.16062 0C4.6202 0 4.99276 0.372565 4.99276 0.832146L4.99276 4.16785C4.99276 4.62743 4.6202 5 4.16062 5L0.832147 5C0.372565 5 0 4.62743 0 4.16785Z" fill="#7C7C7B" fill-rule="evenodd" transform="matrix(1.00145 0 -0 1 45 182)"/><path d="M0 0.832144C-2.22798e-16 0.372564 0.372564 0 0.832145 -1.11399e-16L4.16062 0C4.6202 -2.22798e-16 4.99276 0.372564 4.99276 0.832144L4.99276 13.1678C4.99276 13.6274 4.6202 14 4.16062 14L0.832145 14C0.372564 14 1.11399e-16 13.6274 0 13.1678Z" fill="#7C7C7B" fill-rule="evenodd" transform="matrix(1.00145 0 -0 1 52 181)"/><path d="M0 0.833345C-1.03292e-16 0.373101 0.3731 -1.03293e-16 0.833343 -1.03293e-16L12.1478 0C12.6081 -1.03293e-16 12.9812 0.373101 12.9812 0.833345L12.9812 4.16665C12.9812 4.6269 12.6081 5 12.1478 5L0.833343 5C0.3731 5 1.03292e-16 4.6269 1.03292e-16 4.16665Z" fill="#7C7C7B" fill-rule="evenodd" transform="matrix(1.00145 0 -0 1 29 190)"/><path d="M0 0.832146C0 0.372565 0.372565 0 0.832147 0L4.16062 0C4.6202 0 4.99276 0.372565 4.99276 0.832146L4.99276 4.16785C4.99276 4.62743 4.6202 5 4.16062 5L0.832147 5C0.372565 5 0 4.62743 0 4.16785Z" fill="#7C7C7B" fill-rule="evenodd" transform="matrix(1.00145 0 -0 1 45 190)"/><path d="M0 13.8501 3.8869 0 7.98842 1.82709 2.76614 15 0 13.8501Z" fill="#6A4742" fill-rule="evenodd" transform="matrix(1.00145 0 -0 1 82 179)"/><path d="M0.591248 0 0 2.85713 2.16791 3.99998 2.99566 1.37142 0.591248 0 0.591248 0Z" fill="#6A4742" fill-rule="evenodd" transform="matrix(1.00145 0 -0 1 82 193)"/><path d="M4.99276 1.70877 4.23032 4.00008 0 2.14891 0.713252 0 4.99276 1.70877Z" fill="#D0D0D0" fill-rule="evenodd" transform="matrix(1.00145 0 -0 1 86 177)"/><path d="M9.11843 0 0 27.3121 4.07345 29 12.9812 1.40652 9.11843 0Z" fill="#6A4742" fill-rule="evenodd" transform="matrix(1.00145 0 -0 1 87 150)"/><path d="M0 1.92213 0.196606 0 1.99711 0.916154 1.69702 2.99996 0 1.92213Z" fill="#D0D0D0" fill-rule="evenodd" transform="matrix(1.00145 0 -0 1 98 148)"/><path d="M2.38164 3.00006 2.38164 3.00006C3.99421 2.20176 0 0 0.223279 2.3434L2.38164 3.00006Z" fill="#7C7C7B" fill-rule="evenodd" transform="matrix(1.00145 0 -0 1 98 146)"/><path d="M5.99132 0.821304 4.38734 0 0.0117939 12.7239C0 14.0001 1.19119 14.0001 1.67474 13.4568L5.99132 0.821304Z" fill="#D0D0D0" fill-rule="evenodd" transform="matrix(1.00145 0 -0 1 91 156)"/><path d="M0.834234 0 0 2.38157 0.227518 2.85525 0.0505596 3.55261C0.0379197 3.71051 0.189599 3.99998 0.455037 3.67103L0.733115 2.90788 1.18815 2.73683 1.99711 0.460524 0.834234 0Z" fill="#6A4742" fill-rule="evenodd" transform="matrix(1.00145 0 -0 1 81 196)"/><path d="M11.6008 0C16.4345 0.0347778 21.2221 0.545274 25.9868 1.27614 28.5762 1.6706 31.1887 2.04188 33.8127 2.1811 35.4355 2.26235 37.1042 1.96063 38.7269 1.72867 44.5735 0.881671 50.4084-0.0928463 56.3469 0.150809 60.0411 0.301619 63.7355 0.626528 67.4183 0.858485 67.7521 0.881671 67.9017 0.98611 67.9017 1.3342 67.8902 2.58715 67.9132 3.8517 67.8786 5.10465 67.8786 5.30193 67.7406 5.55718 67.5794 5.67321 65.9452 6.79854 65.151 8.42277 64.9209 10.3486 64.7943 11.4624 64.6792 12.5761 64.5871 13.6898 64.403 15.9174 63.2291 17.298 61.123 17.9593 59.2355 18.5509 57.3021 18.8062 55.3457 18.9106 51.3291 19.131 47.3355 18.899 43.3995 18.0056 42.8011 17.8664 42.2141 17.6692 41.6502 17.4604 40.4418 16.9963 39.5672 16.161 39.1067 14.9313 38.4392 13.1445 37.8753 11.3115 37.1387 9.54809 36.782 8.7012 36.2066 7.90068 35.5851 7.21619 34.6874 6.21849 33.2833 6.24167 32.282 7.15823 31.1887 8.15593 30.6593 9.49013 30.176 10.8358 29.6926 12.1816 29.2553 13.539 28.7718 14.8848 28.2885 16.2074 27.3563 17.0659 26.0558 17.53 23.9037 18.3073 21.6595 18.5857 19.4038 18.783 15.721 19.1194 12.0496 19.1194 8.40136 18.3885 7.59574 18.2261 6.81323 17.9477 6.04212 17.6692 4.43089 17.0775 3.59077 15.8245 3.36056 14.1539 3.17646 12.7734 3.08436 11.3811 2.90026 10.0121 2.65855 8.2023 1.82994 6.72888 0.310705 5.67321 0.161102 5.56877 0.0344995 5.33671 0.0344995 5.16272 0 3.90977 0.0229997 2.65671 0 1.39217 0 0.997702 0.161102 0.881671 0.54091 0.846893 4.22368 0.580052 7.91805 0.290026 11.6008 0ZM13.9026 2.35509C13.9026 2.29713 13.8911 2.23906 13.8911 2.19269 11.0484 2.44794 8.20576 2.71478 5.3631 2.94684 4.66109 3.0048 4.28128 3.36449 4.09708 4.00251 4.02808 4.25775 3.94747 4.5246 3.91297 4.79144 3.64827 6.84491 3.86698 8.88679 4.24678 10.9055 4.44238 11.9381 4.67259 13.0169 5.1674 13.9219 5.97301 15.3837 7.46914 16.0334 8.98837 16.509 12.1302 17.4951 15.3642 17.5996 18.6212 17.3096 20.8078 17.1124 22.9484 16.7643 24.9855 15.8593 26.2285 15.3025 27.1952 14.5135 27.6555 13.2258 28.369 11.1723 29.0827 9.10726 29.6926 7.0189 30.222 5.22068 29.4279 4.03739 27.5865 3.70089 23.052 2.86559 18.5061 2.3435 13.9026 2.35509ZM54.1026 2.19269C50.9148 2.47112 47.7843 2.70319 44.6655 3.0164 43.2384 3.15561 41.8228 3.42245 40.4073 3.66611 38.6349 3.96773 37.7027 5.11635 38.1515 6.68251 38.7845 8.92157 39.5441 11.126 40.3152 13.3302 40.6144 14.1771 41.1323 14.9313 41.9724 15.3373 42.9046 15.7782 43.8483 16.2422 44.8382 16.5206 48.049 17.4256 51.3406 17.5996 54.6435 17.3211 56.6346 17.1472 58.6026 16.8107 60.421 15.8942 61.8251 15.1864 62.9644 14.2235 63.3442 12.5993 63.8275 10.5226 64.1268 8.42277 64.0807 6.28804 64.0692 5.46433 63.9081 4.64063 63.7355 3.8401 63.6204 3.30642 63.2406 3.0164 62.6537 2.97003 59.7995 2.70319 56.9338 2.44794 54.1026 2.19269Z" fill="#D68D87" fill-rule="evenodd" transform="matrix(1.00145 0 -0 1 376 186)"/><path d="M10.0817 0.182445C14.6679 0.171049 19.1968 0.6843 23.7026 1.48267 25.5486 1.81347 26.3283 2.96533 25.8008 4.74451 25.1931 6.79751 24.4938 8.82762 23.7715 10.8463 23.3242 12.1237 22.3497 12.8992 21.1115 13.4353 19.0821 14.3249 16.9495 14.6785 14.7711 14.861 11.5379 15.1461 8.31609 15.0434 5.1745 14.074 3.66109 13.6064 2.1706 12.9677 1.36801 11.5306 0.874966 10.641 0.657084 9.5803 0.450762 8.5653 0.0609279 6.58078-0.145394 4.58486 0.118211 2.55475 0.152684 2.29243 0.221424 2.03011 0.301723 1.77918 0.473675 1.15196 0.852053 0.798367 1.56288 0.741385 4.39483 0.513251 7.22678 0.250927 10.0587 0 10.0703 0.0684818 10.0817 0.125464 10.0817 0.182445ZM0.657084 2.60034C1.05838 2.70301 1.36801 2.80568 1.68901 2.86266 2.72093 3.068 3.48914 3.63824 4.07384 4.50508 4.80758 5.61136 5.57579 6.70624 6.33255 7.80112 7.71983 9.81983 9.11857 11.8385 10.506 13.8686 10.6664 14.0968 10.7926 14.2793 11.0907 14.0398 11.8245 13.4581 12.0308 11.6219 11.4232 10.9147 9.30208 8.42844 7.13513 5.96496 5.05983 3.433 3.97063 2.10998 2.49159 1.83626 0.920793 1.56254 0.817684 1.92744 0.748841 2.22405 0.657084 2.60034Z" fill="#D0D0D0" fill-rule="evenodd" fill-opacity="0.501961" transform="matrix(1.00145 0 -0 1 380 188)"/><path d="M16.0098 0C18.8324 0.251259 21.6779 0.513929 24.5351 0.753776 25.1087 0.799421 25.4989 1.08491 25.6136 1.61025 25.7857 2.40968 25.9349 3.22051 25.9578 4.01993 26.0038 6.12129 25.7053 8.18831 25.2235 10.2325 24.8448 11.8314 23.7089 12.7792 22.309 13.4758 20.4962 14.3667 18.5341 14.7093 16.549 14.8806 13.256 15.1547 9.97439 14.9834 6.77321 14.0926 5.78637 13.8185 4.8455 13.3731 3.91609 12.9277 3.0785 12.528 2.56215 11.7857 2.26385 10.9521 1.49506 8.79364 0.737836 6.61229 0.10673 4.40823-0.329259 2.86644 0.60015 1.73588 2.35568 1.43898 3.76694 1.19913 5.1783 0.936462 6.60102 0.799421 9.71048 0.502517 12.8315 0.26267 16.0098 0ZM25.0743 1.51886C24.3399 1.69024 23.663 1.7473 23.0893 2.00997 22.4123 2.30687 21.6779 2.67235 21.1961 3.2091 18.9127 5.76723 16.7098 8.39392 14.4952 10.9977 14.3461 11.1804 14.2084 11.4202 14.1854 11.6487 14.1051 12.4253 14.2887 13.1561 14.7247 13.8185 15.0345 14.2753 15.2066 14.2753 15.5164 13.8185 17.6047 10.7807 19.7045 7.74296 21.7812 4.68231 22.4467 3.7002 23.2729 3.02641 24.4662 2.80939 24.7415 2.76374 25.0169 2.66093 25.3497 2.56954 25.2579 2.21558 25.1776 1.89575 25.0743 1.51886Z" fill="#D0D0D0" fill-rule="evenodd" fill-opacity="0.501961" transform="matrix(1.00145 0 -0 1 414 188)"/><path d="M0 1.06057C0.0988492 0.671684 0.185244 0.353557 0.284093 0 1.97631 0.282803 3.56968 0.565606 4.74308 1.93252 6.99103 4.53673 9.31314 7.08196 11.5982 9.66262 12.2529 10.405 12.0305 12.3022 11.2401 12.8913 10.9189 13.127 10.7831 12.9384 10.6101 12.7146 9.11556 10.6171 7.6087 8.53141 6.11407 6.44571 5.29892 5.31439 4.47133 4.18317 3.68076 3.04019 3.0632 2.14457 2.22327 1.56719 1.11169 1.34337 0.765773 1.27261 0.432311 1.16654 0 1.06057Z" fill="#7C7C7B" fill-rule="evenodd" transform="matrix(1.00145 0 -0 1 380 190)"/><path d="M11.6876 0C11.786 0.387423 11.8844 0.716088 11.9826 1.08005 11.6261 1.174 11.3311 1.26784 11.036 1.3266 9.7573 1.53786 8.87208 2.24221 8.15897 3.25188 5.93352 6.38624 3.6959 9.50898 1.44588 12.6435 1.10167 13.113 0.929559 13.1247 0.597518 12.6435 0.130337 11.9743-0.0663412 11.2112 0.0196567 10.4129 0.0442275 10.1782 0.179479 9.9316 0.351698 9.74381 2.72457 7.05541 5.08516 4.36712 7.53185 1.73749 8.04829 1.18573 8.83522 0.810038 9.56062 0.504834 10.1876 0.234821 10.9007 0.176063 11.6876 0Z" fill="#7C7C7B" fill-rule="evenodd" transform="matrix(1.00145 0 -0 1 428 190)"/><path d="M24.9639 5.53849C11.1771 5.53849 0 2.80441 0 0L0 6.45793C0.0077095 9.26035 11.181 12 24.9639 12 38.7468 12 49.9201 9.26035 49.9278 6.45793L49.9278 0C49.9278 2.80441 38.7508 5.53849 24.9639 5.53849" fill="#A6A6A6" fill-rule="evenodd" transform="matrix(1.00145 0 -0 1 122 195)"/><path d="M24.4646 5.99999C10.9535 5.99999 0 3.03809 0 0L0 6.99604C0.00755531 10.032 10.9574 13 24.4646 13 37.9719 13 48.9217 10.032 48.9293 6.99604L48.9293 0C48.9293 3.03809 37.9757 5.99999 24.4646 5.99999" fill="#A6A6A6" fill-rule="evenodd" transform="matrix(1.00145 0 -0 1 120 185)"/><path d="M0 0 0 6.9971C0.639105 7.13008 1.3052 7.2562 1.99711 7.37508L1.99711 0.377978C1.3052 0.258905 0.639105 0.132978 0 0" fill="#7C7C7B" fill-rule="evenodd" transform="matrix(1.00145 0 -0 1 128 189)"/><path d="M0 0.377978 0 7.37606C0.346052 7.2562 0.679 7.13008 0.998553 6.9971L0.998553 0C0.679 0.132978 0.346052 0.258905 0 0.377978" fill="#7C7C7B" fill-rule="evenodd" transform="matrix(1.00145 0 -0 1 159 189)"/><path d="M0 0 0 5.99907C0.656119 6.03852 1.32104 6.07361 1.99711 6.10197L1.99711 0.10206C1.32104 0.0736917 0.656119 0.0394477 0 0" fill="#7C7C7B" fill-rule="evenodd" transform="matrix(1.00145 0 -0 1 138 191)"/><path d="M0 0.10206 0 6.10197C0.676067 6.07361 1.34118 6.03852 1.99711 5.99907L1.99711 0C1.34118 0.0394477 0.676067 0.0736917 0 0.10206" fill="#7C7C7B" fill-rule="evenodd" transform="matrix(1.00145 0 -0 1 149 191)"/><path d="M0 0 0 5.9975C0.639105 6.11148 1.3052 6.21959 1.99711 6.32148L1.99711 0.323981C1.3052 0.221918 0.639105 0.113981 0 0" fill="#7C7C7B" fill-rule="evenodd" transform="matrix(1.00145 0 -0 1 131 199)"/><path d="M0 0.323981 0 6.32232C0.692103 6.21959 1.358 6.11148 1.99711 5.9975L1.99711 0C1.358 0.113981 0.692103 0.221918 0 0.323981" fill="#7C7C7B" fill-rule="evenodd" transform="matrix(1.00145 0 -0 1 161 199)"/><path d="M0 0 0 6.99906C0.656119 7.04508 1.32104 7.08601 1.99711 7.11911L1.99711 0.119073C1.32104 0.0859753 0.656119 0.0460233 0 0" fill="#7C7C7B" fill-rule="evenodd" transform="matrix(1.00145 0 -0 1 140 200)"/><path d="M0 0.119073 0 7.11911C0.676067 7.08601 1.34118 7.04508 1.99711 6.99906L1.99711 0C1.34118 0.0460233 0.676067 0.0859753 0 0.119073" fill="#7C7C7B" fill-rule="evenodd" transform="matrix(1.00145 0 -0 1 152 200)"/><path d="M46.2908 0C43.5639 2.498 33.7618 4.62801 22.0834 4.62801 12.9525 4.62801 4.97075 3.32505 0.618264 1.56304 0.217934 1.94102 0 2.34113 0 2.75808 0 5.79602 11.1771 8.62813 24.9639 8.62813 38.7517 8.62813 49.9278 5.79602 49.9278 2.75808 49.9278 1.71109 48.598 0.774957 46.2908 0" fill="#D9D9D9" fill-rule="evenodd" transform="matrix(1.00145 0 -0 1 122 192)"/><path d="M30.1103 5.28313C17.6776 5.28313 7.41839 2.76808 5.85831 0 2.20836 0.878955 0 2.05011 0 3.413 0 6.45017 10.9535 9.28327 24.4646 9.28327 37.9757 9.28327 48.9293 6.45017 48.9293 3.413 48.9293 3.27904 48.9011 3.14802 48.8587 3.01798 44.3712 4.36011 37.6398 5.28313 30.1103 5.28313" fill="#D9D9D9" fill-rule="evenodd" transform="matrix(1.00145 0 -0 1 120 182)"/><path d="M24.9639 5.99999C11.1771 5.99999 0 3.03809 0 0L0 6.99604C0.0077095 10.032 11.181 13 24.9639 13 38.7468 13 49.9201 10.032 49.9278 6.99604L49.9278 0C49.9278 3.03809 38.7508 5.99999 24.9639 5.99999" fill="#A6A6A6" fill-rule="evenodd" transform="matrix(1.00145 0 -0 1 125 175)"/><path d="M48.9293 4.66369C48.9293 7.42451 37.9757 10 24.4646 10 10.9535 10 0 7.42451 0 4.66369 0 1.90179 10.9535 0 24.4646 0 37.9757 0 48.9293 1.90179 48.9293 4.66369" fill="#D9D9D9" fill-rule="evenodd" transform="matrix(1.00145 0 -0 1 120 160)"/><path d="M24.4646 5.53844C10.9535 5.53844 0 2.80438 0 0L0 6.45787C0.00755531 9.26027 10.9574 11.9999 24.4646 11.9999 37.9719 11.9999 48.9217 9.26027 48.9293 6.45787L48.9293 0C48.9293 2.80438 37.9757 5.53844 24.4646 5.53844" fill="#A6A6A6" fill-rule="evenodd" transform="matrix(1.00145 0 -0 1 121 165)"/><path d="M0 0 0 6.9971C0.639105 7.13008 1.3052 7.2562 1.99711 7.37508L1.99711 0.377978C1.3052 0.259101 0.639105 0.132978 0 0" fill="#7C7C7B" fill-rule="evenodd" transform="matrix(1.00145 0 -0 1 128 169)"/><path d="M0 0.377978 0 7.37606C0.346052 7.2562 0.679 7.13008 0.998553 6.9971L0.998553 0C0.679 0.132978 0.346052 0.259101 0 0.377978" fill="#7C7C7B" fill-rule="evenodd" transform="matrix(1.00145 0 -0 1 159 169)"/><path d="M0 0 0 6.99895C0.656119 7.04498 1.32104 7.08591 1.99711 7.11901L1.99711 0.119071C1.32104 0.0859741 0.656119 0.0460226 0 0" fill="#7C7C7B" fill-rule="evenodd" transform="matrix(1.00145 0 -0 1 138 170)"/><path d="M0 0.119071 0 7.11901C0.676067 7.08591 1.34118 7.04498 1.99711 6.99895L1.99711 0C1.34118 0.0460226 0.676067 0.0859741 0 0.119071" fill="#7C7C7B" fill-rule="evenodd" transform="matrix(1.00145 0 -0 1 149 170)"/><path d="M0 0 0 6.9971C0.639105 7.13008 1.3052 7.2562 1.99711 7.37508L1.99711 0.377978C1.3052 0.259101 0.639105 0.132978 0 0" fill="#7C7C7B" fill-rule="evenodd" transform="matrix(1.00145 0 -0 1 134 179)"/><path d="M0 0.377978 0 7.37606C0.692103 7.2562 1.358 7.13008 1.99711 6.9971L1.99711 0C1.358 0.132978 0.692103 0.259101 0 0.377978" fill="#7C7C7B" fill-rule="evenodd" transform="matrix(1.00145 0 -0 1 164 179)"/><path d="M0 0 0 5.99907C0.656119 6.03852 1.32104 6.07361 1.99711 6.10197L1.99711 0.10206C1.32104 0.0736917 0.656119 0.0394477 0 0" fill="#7C7C7B" fill-rule="evenodd" transform="matrix(1.00145 0 -0 1 143 181)"/><path d="M0 0.10206 0 6.10197C0.676067 6.07361 1.34118 6.03852 1.99711 5.99907L1.99711 0C1.34118 0.0394477 0.676067 0.0736917 0 0.10206" fill="#7C7C7B" fill-rule="evenodd" transform="matrix(1.00145 0 -0 1 155 181)"/><path d="M43.2001 0C40.2129 2.15116 30.6039 3.9566 19.203 3.9566 11.8407 3.9566 5.22422 3.20281 0.654743 2.08989 0.231473 2.43649 0 2.80102 0 3.18314 0 5.88371 11.1771 8.40115 24.9639 8.40115 38.7508 8.40115 49.9278 5.88371 49.9278 3.18314 49.9278 1.89247 47.3709 0.794696 43.2001 0" fill="#D9D9D9" fill-rule="evenodd" transform="matrix(1.00145 0 -0 1 125 173)"/><path d="M49.9278 5.13006C49.9278 8.16698 38.7508 11 24.9639 11 11.1771 11 0 8.16698 0 5.13006 0 2.09198 11.1771 0 24.9639 0 38.7508 0 49.9278 2.09198 49.9278 5.13006" fill="#D9D9D9" fill-rule="evenodd" transform="matrix(1.00145 0 -0 1 119 150)"/><path d="M24.9639 5.53844C11.1771 5.53844 0 2.80438 0 0L0 6.45787C0.0077095 9.26027 11.181 11.9999 24.9639 11.9999 38.7468 11.9999 49.9201 9.26027 49.9278 6.45787L49.9278 0C49.9278 2.80438 38.7508 5.53844 24.9639 5.53844" fill="#A6A6A6" fill-rule="evenodd" transform="matrix(1.00145 0 -0 1 119 155)"/><path d="M0 0 0 6.9971C0.639105 7.13008 1.3052 7.2562 1.99711 7.37508L1.99711 0.377978C1.3052 0.259101 0.639105 0.132978 0 0" fill="#7C7C7B" fill-rule="evenodd" transform="matrix(1.00145 0 -0 1 128 159)"/><path d="M0 0.377978 0 7.37606C0.692103 7.2562 1.358 7.13008 1.99711 6.9971L1.99711 0C1.358 0.132978 0.692103 0.259101 0 0.377978" fill="#7C7C7B" fill-rule="evenodd" transform="matrix(1.00145 0 -0 1 158 159)"/><path d="M0 0 0 5.99907C0.656119 6.03852 1.32104 6.07361 1.99711 6.10197L1.99711 0.10206C1.32104 0.0736917 0.656119 0.0394477 0 0" fill="#7C7C7B" fill-rule="evenodd" transform="matrix(1.00145 0 -0 1 137 161)"/><path d="M0 0.10206 0 6.10197C0.676067 6.07361 1.34118 6.03852 1.99711 5.99907L1.99711 0C1.34118 0.0394477 0.676067 0.0736917 0 0.10206" fill="#7C7C7B" fill-rule="evenodd" transform="matrix(1.00145 0 -0 1 149 161)"/><path d="M18.7856 81.7295C18.0002 81.4187 16.8822 80.3617 16.4336 79.5062 16.1354 78.9376 16.0841 74.8513 16.0904 52.1483 16.0996 35.2575 16.0118 25.4588 15.8631 25.4588 15.7339 25.4588 14.994 25.6233 14.219 25.8245 11.2752 26.588 8.50528 26.0592 5.77403 24.2119 3.95001 22.9783 2.43002 21.0728 1.00176 18.2299 0.0669342 16.369-0.0928683 15.8548 0.0415247 15.141 0.263914 13.9605 1.62906 12.7853 2.77773 12.7853 4.29863 12.7853 5.00627 13.3601 6.00399 15.4058 7.16608 17.7885 9.23624 19.9824 10.5549 20.2287 12.3514 20.5644 14.5802 19.8399 16.272 18.3701 16.7066 17.9926 17.4224 17.6169 17.8626 17.5353 18.3029 17.4538 22.0768 17.421 26.2491 17.4624L33.8351 17.5379 35.1414 18.223C38.5506 20.0115 40.8267 23.9773 42.0089 30.1895 42.8064 34.3811 43.1324 40.616 42.8215 45.7427 42.6371 48.7861 42.5663 49.1439 42.0346 49.7074 41.7132 50.0481 41.053 50.4454 40.5676 50.5903 39.3949 50.9401 38.0651 50.3995 37.387 49.2974 36.9194 48.5373 36.8996 48.2314 37.044 43.9818 37.2657 37.4508 36.4428 29.5312 35.3298 27.4864 34.9923 26.8663 34.9549 29.3226 34.9461 52.6652 34.9368 74.3799 34.8805 78.6629 34.5906 79.3529 33.4049 82.1718 29.3481 82.8759 27.2985 80.6183 26.1224 79.3229 26.1268 79.3911 26.1268 62.5126L26.1268 46.6627 25.5216 46.6627 24.9167 46.6627 24.8491 62.6876 24.7816 78.7124 24.1699 79.7921C23.1442 81.6025 20.6929 82.4845 18.7864 81.7295ZM22.8738 15.3362C20.7458 14.5584 18.9528 12.7992 18.0379 10.5917 17.4846 9.25676 17.578 6.08567 18.211 4.71251 18.9938 3.01454 20.3592 1.66594 22.1804 0.791988 26.2563-1.16383 30.8632 0.615958 32.7714 4.88362 33.5192 6.5562 33.516 9.27087 32.7621 10.9573 32.0274 12.6051 30.4672 14.1584 28.6941 15.0069 27.4879 15.5841 26.9199 15.7065 25.5129 15.6925 24.5707 15.6832 23.3821 15.5229 22.8717 15.3362Z" fill="#7C7C7B" fill-rule="evenodd" transform="matrix(1.00145 0 -0 1 277 125)"/><path d="M8.82799 1.75065C8.56598 1.73546 8.32417 1.73546 8.33624 2.32778L8.29594 4.90975 16.7158 4.92494 16.6876 2.26197C16.6876 1.99366 16.7199 1.76076 16.3571 1.78104ZM8.31944 0 16.6671 0C17.2115 0.0557972 17.8608 0.578451 18.0584 1.84695L18.0544 4.90665 18.1189 4.90157 23.2122 4.93709C23.8252 4.91173 24.9019 5.65762 24.9624 7.04788L24.9624 22.7268C24.9946 23.2596 24.5026 24.7919 23.5106 24.9645L1.61711 25C0.487951 24.9188 0.112912 23.909 0 22.6963L0.104835 7.90542C-0.0161533 5.18573 1.57677 5.08425 1.93569 4.93709L7.04107 4.91676 7.02496 2.15648C7.0088 0.695127 7.70243 0.131921 8.31944 0Z" fill="#6A4742" fill-rule="evenodd" transform="matrix(1.00145 0 -0 1 267 113)"/><path d="M5.22335 1.79557 5.22335 5.06439 1.93357 5.06439 1.93357 6.73968 5.22335 6.73968 5.22335 10.0085 6.90938 10.0085 6.90938 6.73968 10.1992 6.73968 10.1992 5.06439 6.90938 5.06439 6.90938 1.79557ZM5.99132 0C9.30022 0 11.9826 2.68629 11.9826 6.00002 11.9826 9.31375 9.30022 12 5.99132 12 2.68241 12 0 9.31375 0 6.00002 0 2.68629 2.68241 0 5.99132 0Z" fill="#F2F2F2" fill-rule="evenodd" transform="matrix(1.00145 0 -0 1 274 123)"/><path d="M-0.925875-41.7919C-1.11576-40.9197-1.2296-40.3129-1.41948-39.706-2.82405-34.8519-4.15279-29.9977-5.6713-25.1434-6.08887-23.7402-5.93701-22.9817-4.53244-22.337 1.238-19.5686 0.440778-19.5307-1.19169-14.1456-1.98891-11.4908-2.86206-8.83622-3.6972-6.21947-5.06385-1.8962-7.60738-0.0378737-12.087 0-15.3897 0-18.6546 0-21.9574 0-26.3611 0-28.7147-1.63067-30.3472-5.72649-31.2583-8.00185-32.1694-10.2773-33.1564-12.7802-35.3962-10.9979-37.4083-9.40506-39.4583-7.85025-41.3944-6.37118-43.1027-6.37118-44.2795-7.88812-45.4564-9.36719-45.0389-11.0358-43.1027-12.5907-40.1796-14.904-37.2564-17.2553-34.3333-19.5307-31.9416-21.389-30.0055-20.8959-28.8287-18.0896-27.8416-15.7762-26.9305-13.387-25.9435-11.0737-25.7157-10.5427-25.2601-10.0877-24.8805-9.63262-24.6527-9.74634-24.4629-9.8222-24.2351-9.93603-27.2721-20.4029-30.3092-30.9078-33.4221-41.7161-30.4991-41.7161-27.8416-41.7161-24.9185-41.7161-25.9435-45.5463-26.8925-49.0353-27.7656-52.6001-28.7907-56.9613-29.7778-61.3226-30.6888-65.7217-31.1823-68.1489-30.537-69.4383-28.9046-69.8933-27.0824-70.3864-25.0704-69.1348-24.5388-66.9352-23.362-62.2327-22.299-57.4923-21.1602-52.7518-20.4009-49.5662-19.6036-46.3806-18.8824-43.195-18.6546-42.1332-18.237-41.5264-16.9842-41.6402-15.5416-41.7539-15.9213-42.8158-15.9213-43.6122-15.8833-51.0073-15.9213-58.4024-15.8833-65.7976-15.8833-66.7835-15.8074-68.035-15.2-68.6419-14.4408-69.3624-13.074-70.0071-12.125-69.8554-11.1759-69.7037-10.2648-68.566-9.69533-67.6558-9.31567-67.0491-9.46754-66.063-9.46754-65.2287-9.46754-58.099-9.42962-50.9694-9.46754-43.8018-9.46754-42.3608-9.1259-41.7539-7.56947-41.8678-5.44351-41.9056-3.31754-41.7919-0.925875-41.7919ZM-9.96103-10.0877C-9.77126-9.93603-9.58148-9.74634-9.3916-9.59464-8.86019-10.0119-8.06297-10.3152-7.83518-10.8841-7.1518-12.4389-6.77225-14.1076-6.1648-15.6625-5.59537-17.1036-6.05096-17.7483-7.68331-18.0137-8.44252-15.3211-9.20183-12.7044-9.96103-10.0877Z" fill="#7C7C7B" fill-rule="evenodd" transform="matrix(1.00145 8.75495e-08 8.74228e-08 -1 367 137)"/><path d="M-7.0277 0C-10.9024-0.0380962-14.0174-3.2043-13.9794-7.09528-13.9414-10.8718-10.7885-13.9998-7.0277-13.9998-3.19096-14.0379 0-10.8336 0-6.98078 0-3.128-3.15292 0-7.0277 0Z" fill="#7C7C7B" fill-rule="evenodd" transform="matrix(1.00145 8.75495e-08 8.74228e-08 -1 357 122)"/><g clip-path="url(#clip1)"><g clip-path="url(#clip2)"><g clip-path="url(#clip3)"><path d="M13.419 5.46804C14.5087 2.88522 16.9981 1.08054 19.8936 1.08054 23.794 1.08054 26.6031 4.4172 26.9563 8.39376 26.9563 8.39376 27.1469 9.38088 26.7273 11.158 26.156 13.5783 24.813 15.7286 23.0024 17.3696L13.419 25.92 3.99708 17.3691C2.18646 15.7286 0.84348 13.5778 0.27216 11.1575-0.14742 9.38034 0.0432 8.39322 0.0432 8.39322 0.39636 4.41666 3.20544 1.08 7.10586 1.08 10.0019 1.08 12.3293 2.88522 13.419 5.46804Z" fill="#D68D87" transform="matrix(1 0 -0 1 312 122)"/></g></g></g><path d="M4.73645 15.9896C6.04037 16.653 7.51147 16.9999 8.99181 16.9999 12.5097 16.9999 15.7795 14.9908 17.2109 11.9518 18.661 8.87337 18.0045 5.17471 15.5802 2.70835 13.1576 0.243341 9.31598-0.64736 5.96262 0.486919 2.66527 1.60213 0.298585 4.52506 0.0265835 7.8268-0.247918 11.159 1.62318 14.4052 4.73645 15.9896Z" fill="#7C7C7B" fill-rule="evenodd" transform="matrix(1.00145 0 -0 1 209 125)"/><path d="M28.8375 41.2465C29.2938 41.2465 29.7226 41.0429 30.0134 40.6879 30.3043 40.3322 30.4308 39.9269 30.3324 39.4082L24.4588 17.9258 24.4588 14.5247C25.3094 15.849 25.9109 17.3772 26.3155 18.8959 26.6308 20.0794 26.7953 21.276 26.9239 22.4918 27.0649 23.8171 28.2453 24.8259 29.5634 24.7573 30.8771 24.6888 31.9407 23.5653 31.9514 22.2393 31.958 21.4227 31.9518 20.6121 31.912 19.7962 31.8577 18.676 31.6845 17.5548 31.4587 16.458 30.9873 14.171 30.1479 11.9531 28.9935 9.92757 27.8384 7.89952 26.3791 6.05256 24.6967 4.44407 23.8883 3.67107 23.0253 2.9534 22.1186 2.30075 21.4247 1.80132 20.6985 1.30387 19.9205 0.947022 19.8512 0.915187 19.7809 0.887163 19.7099 0.859933 17.4136-0.273334 14.6602-0.287465 12.3533 0.823414 11.5338 1.11413 10.7804 1.6396 10.0722 2.13578 9.17522 2.76382 8.32448 3.45751 7.51972 4.20138 5.80502 5.78581 4.34302 7.61896 3.14222 9.62479 2.54111 10.629 2.02722 11.6949 1.59543 12.7837 1.17278 13.8509 0.803188 14.9722 0.573323 16.0992 0.34338 17.2244 0.175705 18.3425 0.0669913 19.4862-0.018893 20.3886-0.000236162 21.2985 0.00637638 22.2036 0.00676998 22.2154 0.00676998 22.2276 0.00676998 22.2397 0.0166101 23.5734 1.09272 24.6958 2.41232 24.7582 3.72562 24.8203 4.89304 23.809 5.03443 22.4916 5.16361 21.2757 5.32806 20.0793 5.64286 18.8961 6.05481 17.3503 6.67528 15.828 7.53043 14.4759L7.53043 17.6672 1.63991 39.4127C1.55174 39.8659 1.66817 40.3298 1.95841 40.6861 2.24921 41.0423 2.67855 41.2469 3.13616 41.2469L8.03912 41.2469 8.93512 61.1664C9.01077 62.7233 10.3212 63.9949 11.8686 63.9997 13.4136 64.0044 14.7287 62.7492 14.8135 61.1946L15.8978 41.2472 16.1442 41.2472 17.0399 61.1668C17.1155 62.7237 18.4262 63.9952 19.9734 64.0001 21.5184 64.0048 22.8338 62.7496 22.9186 61.195L24.0029 41.2476 28.8375 41.2476 28.8375 41.2465Z" fill="#7C7C7B" fill-rule="evenodd" transform="matrix(1.00145 0 -0 1 202 143)"/><path d="M51.4156 13.0703C51.976 12.7882 52.5363 12.5062 53.0967 12.2713 57.393 10.3442 61.8294 11.4252 64.9115 14.9974 65.5187 15.7024 66.6394 16.2664 67.5267 16.2664 72.29 16.3604 75.7924 19.4625 75.8858 23.9276 76.0259 28.4397 72.6636 31.9648 67.947 31.9648 47.5863 32.0119 27.1788 32.0119 6.81806 31.9648 2.80195 31.9648 0 29.1918 0 25.4786 0 21.7185 2.70852 19.1334 6.72463 18.8045 7.47186 18.7575 8.45251 18.1934 8.82612 17.5824 11.488 13.3053 15.2706 11.1903 20.3141 11.1432 21.0146 11.1432 22.0886 10.5792 22.4155 9.92117 25.7778 2.96501 30.9614-0.466155 37.5926 0.0508783 44.364 0.567912 50.0146 5.73804 51.1353 12.3652 51.1353 12.6003 51.2754 12.7882 51.4156 13.0703Z" fill="#D0D0D0" fill-rule="evenodd" transform="matrix(1.00145 0 -0 1 129 41)"/><path d="M25.0987 27.9905C19.4135 27.9905 13.7283 28.0289 8.00468 27.9522 6.62182 27.9522 5.20047 27.7985 3.81761 27.4913 0.053034 26.608-1.21455 22.7677 1.32072 19.7722 1.93537 19.0426 2.70358 18.2745 3.54867 18.0441 5.54618 17.5449 6.00717 16.3544 6.2761 14.4342 7.00592 9.24972 11.5771 5.75501 16.8782 5.87025 17.4928 5.87025 18.3763 5.71663 18.6836 5.29425 22.1408 0.263426 27.173-0.658304 32.6277 0.378564 38.0824 1.41554 41.7317 4.87177 43.4603 10.1331 43.8445 11.2851 44.3822 11.6692 45.573 11.8228 51.4887 12.7061 54.4849 17.9289 52.1033 23.3053 50.5668 26.8768 47.3016 27.7985 43.8828 27.9137 37.6215 28.0673 31.36 27.9522 25.0603 27.9522 25.0987 27.9905 25.0987 27.9905 25.0987 27.9905Z" fill="#D0D0D0" fill-rule="evenodd" transform="matrix(1.00145 0 -0 1 327 51)"/><g clip-path="url(#clip4)"><g clip-path="url(#clip5)"><g clip-path="url(#clip6)"><path d="M-6.33257-22.9415C-3.42435-22.572-1.09761-20.5677-0.218657-17.6749-0.0301786-17.0546-0.00394297-16.8301-0.000233699-15.8058 0.00317974-14.865-0.0297008-14.5077-0.171631-13.9426-0.698717-11.8441-1.95729-10.3459-4.0894-9.27915-4.40102-9.12321-4.69577-8.94746-4.74441-8.88852-4.79304-8.82963-4.91111-8.54659-5.00679-8.25963-5.4297-6.99102-6.32962-5.88837-7.35131-5.387-8.77484-4.68839-10.0451-4.64596-11.5256-5.24756-11.6291-5.28958-11.7029-5.22037-11.8382-4.95475-12.4388-3.775-13.6979-2.36578-14.8353-1.60009-16.3599-0.573694-17.8366-0.0846729-19.6279-0.0129522-20.9635 0.0405251-21.7761-0.0657058-22.9102-0.44204-24.3451-0.918198-25.5126-1.63783-26.6064-2.72035-28.2551-4.35199-29.1809-6.39694-29.3783-8.84288-29.429-9.47086-29.4534-9.55046-29.6046-9.58255-29.6978-9.60236-30.0812-9.67798-30.4564-9.75071-32.4789-10.1424-34.0195-11.2503-34.9855-13.0077-36.2042-15.2249-36.0835-17.8558-34.6652-19.9892-33.6854-21.463-32.4987-22.3322-30.8177-22.8074L-30.1754-22.989-18.535-23.001C-12.1302-23.0075-6.64181-22.9809-6.33257-22.9415Z" fill="#D0D0D0" transform="matrix(1.0049 8.7851e-08 8.74228e-08 -1 429 23.0001)"/></g></g></g><g clip-path="url(#clip7)"><g clip-path="url(#clip8)"><g clip-path="url(#clip9)"><path d="M-6.3326-22.9416C-3.42437-22.5721-1.09761-20.5678-0.218658-17.6749-0.0301788-17.0547-0.00394299-16.8301-0.0002337-15.8059 0.00317976-14.8651-0.0297009-14.5078-0.171632-13.9427-0.69872-11.8441-1.9573-10.346-4.08942-9.2792-4.40104-9.12325-4.69579-8.9475-4.74443-8.88856-4.79306-8.82967-4.91114-8.54663-5.00681-8.25967-5.42973-6.99105-6.32965-5.8884-7.35135-5.38702-8.77488-4.68841-10.0452-4.64598-11.5257-5.24758-11.6291-5.28961-11.703-5.2204-11.8382-4.95478-12.4389-3.77501-13.6979-2.36579-14.8353-1.60009-16.36-0.573697-17.8367-0.0846733-19.628-0.0129522-20.9636 0.0405253-21.7762-0.0657061-22.9103-0.442042-24.3452-0.918202-25.5127-1.63784-26.6065-2.72036-28.2553-4.35201-29.181-6.39697-29.3785-8.84292-29.4291-9.4709-29.4535-9.5505-29.6047-9.58259-29.6979-9.6024-30.0813-9.67802-30.4566-9.75076-32.4791-10.1425-34.0196-11.2503-34.9856-13.0078-36.2044-15.225-36.0837-17.8559-34.6654-19.9893-33.6856-21.4631-32.4989-22.3323-30.8178-22.8075L-30.1756-22.9891-18.5351-23.0011C-12.1302-23.0076-6.64184-22.981-6.3326-22.9416Z" fill="#D0D0D0" transform="matrix(1.00489 8.78506e-08 8.74228e-08 -1 99 59)"/></g></g></g><path d="M0 21.5C-5.46655e-15 9.62589 9.61195 0 21.4689 0 33.3258-5.47448e-15 42.9378 9.62589 42.9378 21.5 42.9378 33.3742 33.3258 43 21.4689 43 9.61195 43-8.19983e-15 33.3742 0 21.5Z" fill="#F2F2F2" fill-rule="evenodd" transform="matrix(1.00145 0 -0 1 429 101)"/><path d="M54.8228 45.0683C48.7444 40.1772 48.7444 40.1772 48.7444 40.1772 54.9397 29.9291 52.7187 16.3038 43.1335 8.50126 32.6131 0 17.0664 1.74683 8.53319 12.2278 0 22.7088 1.6365 38.081 12.2738 46.5822 21.859 54.3847 35.6523 53.686 44.4193 45.4177 50.6146 50.4252 50.6146 50.4252 50.6146 50.4252 54.8228 45.0683 54.8228 45.0683 54.8228 45.0683M15.1961 42.9721C6.77979 36.1012 5.37708 23.6405 12.2738 15.1392 19.1704 6.75442 31.5611 5.35696 40.0943 12.2278 48.6275 19.0987 49.9133 31.5595 43.0166 39.9443 36.2368 48.4455 23.7293 49.7265 15.1961 42.9721" fill="#7C7C7B" fill-rule="evenodd" transform="matrix(0.967232 0.258794 -0.25847 0.966019 431.342 88.4331)"/><path d="M30.3433 18.4895C31.5148 19.3035 31.632 20.9315 30.8119 21.978 26.8286 26.7457 26.8286 26.7457 26.8286 26.7457 26.0085 27.9086 24.3683 28.0249 23.3139 27.2109 1.17155 9.65173 1.17155 9.65173 1.17155 9.65173 0.117155 8.72144 0 7.09344 0.820088 6.04686 4.80338 1.27914 4.80338 1.27914 4.80338 1.27914 5.62346 0.116286 7.26364 0 8.31804 0.814001L30.3433 18.4895Z" fill="#7C7C7B" fill-rule="evenodd" transform="matrix(0.967232 0.258794 -0.25847 0.966019 468.805 144.989)"/><path d="M15.5493 19.5419C14.5372 21.3855 13.7091 23.0448 12.789 24.7961 12.605 25.1649 12.5131 25.6258 12.237 25.9023 11.869 26.271 11.3169 26.8241 10.949 26.8241 10.5809 26.8241 10.0289 26.1788 9.93688 25.6258 9.38473 23.8743 9.01679 22.0308 8.55675 20.1872 8.46476 19.9106 8.37266 19.5419 8.28067 19.1733 5.52041 19.1733 2.85225 19.1733 0 19.1733 0 18.4358 0 17.7906 0 16.9609 2.20823 16.9609 4.41635 16.9609 6.62459 16.9609 10.5809 16.9609 9.84478 16.5 10.8568 20.2794 11.0409 21.0169 11.2249 21.7542 11.501 22.7682 12.605 20.556 13.7091 18.6202 14.7212 16.6845 14.9053 16.4079 15.0892 16.0391 15.3653 15.7627 16.0093 15.2095 16.8374 15.6704 17.1134 16.6845 17.8495 19.3576 18.5855 22.0308 19.4136 24.7961 19.5056 25.1649 19.5977 25.5336 19.8736 25.8101 20.0576 24.1509 20.2417 22.3995 20.4257 20.7403 21.1618 14.2878 21.8058 7.92735 22.5419 1.47486 22.6339 0.737487 22.7259 0 23.646 0 24.6581 0 24.75 0.737487 24.842 1.56701 25.4862 6.54476 26.2222 11.5224 26.8663 16.4079 26.9583 17.2375 27.2342 17.4218 28.0623 17.4218 29.4425 17.3297 30.8226 17.4218 32.2947 17.4218 33.1227 17.4218 33.9508 17.514 33.9508 18.5279 33.9508 19.5419 33.1227 19.6342 32.3867 19.5419 30.5465 19.5419 28.6144 19.5419 26.7742 19.5419 25.3942 19.5419 25.2101 19.3576 25.0261 17.9749 24.6581 15.5782 24.382 13.1816 23.8299 10.6927 23.738 11.7067 23.554 12.8129 23.462 13.8269 22.8179 19.7263 22.1739 25.7179 21.5298 31.6173 21.4377 32.3548 21.2538 33 20.4257 33 19.5977 33 19.3216 32.3548 19.1376 31.7096 18.0335 27.8381 16.9294 23.9666 15.9173 20.0951 15.7334 20.0951 15.7334 19.9106 15.5493 19.5419Z" fill="#6A4742" fill-rule="evenodd" transform="matrix(1.00145 0 -0 1 433 106)"/></g></svg>